<svg preserveAspectRatio="none" width="100%" height="100%" overflow="visible" style="display: block;" viewBox="0 0 15 21" fill="none" xmlns="http://www.w3.org/2000/svg">
<path id="Vector" d="M12.7511 6.75C13.3808 6.27776 13.8459 5.61939 14.0805 4.86813C14.3152 4.11687 14.3076 3.31082 14.0587 2.56415C13.8098 1.81748 13.3323 1.16804 12.6938 0.707842C12.0553 0.24764 11.2882 0 10.5011 0H3.75111C2.96405 0 2.19694 0.24764 1.55844 0.707842C0.919946 1.16804 0.442433 1.81748 0.193543 2.56415C-0.0553466 3.31082 -0.0629957 4.11687 0.17168 4.86813C0.406355 5.61939 0.871458 6.27776 1.50111 6.75C1.02437 7.10728 0.639616 7.573 0.378716 8.10859C0.117817 8.64418 -0.0117211 9.23423 0.00083279 9.82985C0.0133867 10.4255 0.167671 11.0095 0.450906 11.5337C0.734141 12.0578 1.13818 12.5069 1.62954 12.8438C1.07064 13.2687 0.629444 13.8292 0.347731 14.4723C0.0660177 15.1154 -0.0468887 15.8198 0.0197023 16.5187C0.0862933 17.2176 0.330178 17.888 0.728263 18.4663C1.12635 19.0447 1.66546 19.5118 2.29455 19.8235C2.92364 20.1353 3.62189 20.2813 4.32318 20.2478C5.02447 20.2142 5.7056 20.0022 6.30206 19.6319C6.89853 19.2615 7.39059 18.745 7.73166 18.1314C8.07274 17.5177 8.25153 16.8271 8.25111 16.125V12.75C9.04676 13.3467 10.0469 13.603 11.0314 13.4623C12.016 13.3217 12.9044 12.7956 13.5011 12C14.0978 11.2044 14.3541 10.2042 14.2134 9.21967C14.0728 8.2351 13.5468 7.34674 12.7511 6.75ZM12.7511 3.75C12.7511 4.34674 12.5141 4.91903 12.0921 5.34099C11.6701 5.76295 11.0978 6 10.5011 6H8.25111V1.5H10.5011C11.0978 1.5 11.6701 1.73705 12.0921 2.15901C12.5141 2.58097 12.7511 3.15326 12.7511 3.75ZM1.50111 3.75C1.50111 3.15326 1.73816 2.58097 2.16012 2.15901C2.58207 1.73705 3.15437 1.5 3.75111 1.5H6.75111V6H3.75111C3.15437 6 2.58207 5.76295 2.16012 5.34099C1.73816 4.91903 1.50111 4.34674 1.50111 3.75ZM3.75111 12C3.15437 12 2.58207 11.7629 2.16012 11.341C1.73816 10.919 1.50111 10.3467 1.50111 9.75C1.50111 9.15326 1.73816 8.58097 2.16012 8.15901C2.58207 7.73705 3.15437 7.5 3.75111 7.5H6.75111V12H3.75111ZM6.75111 16.125C6.75111 16.6442 6.59715 17.1517 6.30871 17.5834C6.02028 18.0151 5.61031 18.3515 5.13065 18.5502C4.65099 18.7489 4.12319 18.8008 3.61399 18.6996C3.10479 18.5983 2.63706 18.3483 2.26995 17.9812C1.90284 17.614 1.65283 17.1463 1.55154 16.6371C1.45026 16.1279 1.50224 15.6001 1.70092 15.1205C1.8996 14.6408 2.23605 14.2308 2.66773 13.9424C3.09941 13.654 3.60693 13.5 4.12611 13.5H6.75111V16.125ZM10.5011 12C10.0561 12 9.62108 11.868 9.25107 11.6208C8.88106 11.3736 8.59267 11.0222 8.42238 10.611C8.25208 10.1999 8.20752 9.7475 8.29434 9.31105C8.38116 8.87459 8.59545 8.47368 8.91012 8.15901C9.22478 7.84434 9.6257 7.63005 10.0622 7.54323C10.4986 7.45642 10.951 7.50097 11.3621 7.67127C11.7733 7.84157 12.1247 8.12996 12.3719 8.49997C12.6191 8.86998 12.7511 9.30499 12.7511 9.75C12.7511 10.3467 12.5141 10.919 12.0921 11.341C11.6701 11.7629 11.0978 12 10.5011 12Z" fill="var(--fill-0, #4545A1)"/>
</svg>
